<?xml version="1.0" encoding="UTF-8"?>
<svg viewBox="-100 -100 200 200" xmlns="http://www.w3.org/2000/svg"><circle cx="0" cy="5" r="92" fill="#000" opacity=".22"></circle><circle cx="0" cy="0" r="92" fill="#fff7ea" stroke="#7a4520" stroke-width="3"></circle><circle cx="0" cy="0" r="86" fill="none" stroke="#d8a64a" stroke-width="3"></circle><defs><linearGradient id="sky-88fsoy" x1="0" y1="-80" x2="0" y2="60" gradientUnits="userSpaceOnUse"><stop offset="0" stop-color="#ffc66a"></stop><stop offset="1" stop-color="#ff7a3a"></stop></linearGradient><clipPath id="clip-kc8lpd"><circle cx="0" cy="0" r="79"></circle></clipPath></defs><circle cx="0" cy="0" r="80" fill="url(#sky-88fsoy)" stroke="#7a4520" stroke-width="2"></circle><circle cx="0" cy="-30" r="30" fill="#ff7a3a" opacity=".7"></circle><g clip-path="url(#clip-kc8lpd)"><polygon points="-82.00,32.00 -50.00,-30.00 -20.00,32.00" fill="#c87a3e" stroke="#1a1208" stroke-width="1.6" stroke-linejoin="round"></polygon><polygon points="-32.00,32.00 0.00,-44.00 32.00,32.00" fill="#7a4520" stroke="#1a1208" stroke-width="1.6" stroke-linejoin="round"></polygon><polygon points="18.00,32.00 50.00,-26.00 82.00,32.00" fill="#c87a3e" stroke="#1a1208" stroke-width="1.6" stroke-linejoin="round"></polygon><polygon points="-10.00,-22.00 0.00,-44.00 10.00,-22.00" fill="#fff7ea" stroke="#1a1208" stroke-width="1.6" stroke-linejoin="round"></polygon><polygon points="-82.00,32.00 82.00,32.00 82.00,100.00 -82.00,100.00" fill="#7a4520" stroke="#1a1208" stroke-width="1.6" stroke-linejoin="round"></polygon><circle cx="-44" cy="-44" r="10" fill="#fff7ea" opacity="0.9"></circle></g><g><path d="M -64 46 Q -78 46 -78 60 L -78 74 Q -78 84 -64 84 L 64 84 Q 78 84 78 74 L 78 60 Q 78 46 64 46 Z" fill="#c8312b" stroke="#1a1208" stroke-width="2.5" stroke-linejoin="round"></path><path d="M -68 52 Q -74 52 -74 60 L -74 72 Q -74 80 -68 80 L 68 80 Q 74 80 74 72 L 74 60 Q 74 52 68 52 Z" fill="none" stroke="#fff7e8" stroke-width="0.8" opacity="0.4"></path><text x="0" y="67" text-anchor="middle" font-family="Helvetica,Arial,sans-serif" font-size="14" font-weight="800" letter-spacing="1.2" fill="#fff7e8">MOUNTAIN LOOP</text><text x="0" y="78" text-anchor="middle" font-family="Helvetica,Arial,sans-serif" font-size="6" font-weight="700" letter-spacing="2.2" fill="#fff7e8" opacity="0.85">CAPE COAST</text></g></svg>