<?xml version="1.0" encoding="UTF-8"?>
<svg viewBox="-100 -100 200 200" xmlns="http://www.w3.org/2000/svg"><defs>
    <linearGradient id="bg-gameplay-7laxa5" x1="0" y1="-90" x2="0" y2="90" gradientUnits="userSpaceOnUse">
      <stop offset="0" stop-color="#1e7e8c"></stop>
      <stop offset="1" stop-color="#0e3540"></stop>
    </linearGradient>
  <clipPath id="clip-fx2dy5"><path d="M69.28,40.00 L0.00,80.00 L-69.28,40.00 L-69.28,-40.00 L-0.00,-80.00 L69.28,-40.00 Z"></path></clipPath></defs><path d="M79.67,46.00 L0.00,92.00 L-79.67,46.00 L-79.67,-46.00 L-0.00,-92.00 L79.67,-46.00 Z" fill="#0b0d12" stroke="#3ad6c8" stroke-width="4" stroke-linejoin="round"></path><path d="M69.28,40.00 L0.00,80.00 L-69.28,40.00 L-69.28,-40.00 L-0.00,-80.00 L69.28,-40.00 Z" fill="url(#bg-gameplay-7laxa5)" stroke="#3ad6c8" stroke-width="1.5" stroke-linejoin="round" opacity="0.95"></path><path d="M62.35,36.00 L0.00,72.00 L-62.35,36.00 L-62.35,-36.00 L-0.00,-72.00 L62.35,-36.00 Z" fill="none" stroke="#a8f3ea" stroke-width="1.2" stroke-linejoin="round" opacity="0.35"></path><g clip-path="url(#clip-fx2dy5)"><line x1="-78" y1="-44" x2="-40" y2="-44" stroke="#a8f3ea" stroke-width="4" stroke-linecap="round" opacity="0.9"></line><line x1="-78" y1="-22" x2="-50" y2="-22" stroke="#a8f3ea" stroke-width="4" stroke-linecap="round" opacity="0.9"></line><line x1="-78" y1="0" x2="-32" y2="0" stroke="#a8f3ea" stroke-width="4" stroke-linecap="round" opacity="0.9"></line><line x1="-78" y1="22" x2="-48" y2="22" stroke="#a8f3ea" stroke-width="4" stroke-linecap="round" opacity="0.9"></line><line x1="-78" y1="44" x2="-42" y2="44" stroke="#a8f3ea" stroke-width="4" stroke-linecap="round" opacity="0.9"></line><path d="M -8 50 q -22 -2 -26 -22 l -6 -22 q -2 -10 8 -12 q 8 -2 12 8 l 2 6 v -42 q 0 -10 10 -10 q 10 0 10 10 v 32 v -38 q 0 -10 10 -10 q 10 0 10 10 v 36 v -28 q 0 -10 10 -10 q 10 0 10 10 v 32 v -18 q 0 -10 10 -10 q 10 0 10 10 v 38 q -2 22 -22 26 z" fill="#3ad6c8" stroke="#0b0d12" stroke-width="4" stroke-linejoin="round" stroke-linecap="round"></path><path d="M -22 0 q 4 18 16 22" stroke="#0b0d12" stroke-width="2.2" fill="none" opacity="0.4"></path><path d="M 34 -42 l 4 8 l 8 4 l -8 4 l -4 8 l -4 -8 l -8 -4 l 8 -4 z" fill="#fff7e8" stroke="#0b0d12" stroke-width="2" stroke-linejoin="round"></path></g></svg>